# xmcd
#
# Track frame offsets: 
#        150
#        13601
#        23414
#        36440
#        45491
#        57741
#        68577
#        80747
#        92972
#        102530
#        116017
#        127070
#        136575
#        145412
#        154778
#        163400
#        171632
#        179985
#        189342
#        199327
#        208709
#        222715
#        234507
#        245435
#        257493
#        267761
#        277337
#        291507
#        301216
#        311676
#        319495
#        327314
#
# Disc length: 4489 seconds
#
# Revision: 0
# Processed by: cddbd v1.5.2PL0 Copyright (c) Steve Scherf et al.
# Submitted via: ExactAudioCopyFreeDBPlugin 1.0
#
DISCID=05118720
DTITLE=Buck Owens - Tall Dark Stranger - CD 01
DYEAR=2012
DGENRE=Country
TTITLE0=Tall Dark Stranger
TTITLE1=I've Got A Happy Heart
TTITLE2=Somewhere Between
TTITLE3=Just A Few More Days
TTITLE4=Lonesome Valley
TTITLE5=My Savior Leads The Way
TTITLE6=But You Know I Love You
TTITLE7=Today I Started Loving You Again
TTITLE8=I'm A Natural Loser
TTITLE9=The Biggest Storm Of All
TTITLE10=If I Had You (By My Side)
TTITLE11=Down At The Corner Bar
TTITLE12=Nobody But You
TTITLE13=Lay A Little Light On Me
TTITLE14=Catfish Capers
TTITLE15=Bossanova Buckaroo Style
TTITLE16=Sweet-T-Pie
TTITLE17=Roll Your Own
TTITLE18=When The Roll Is Called Up Yonder
TTITLE19=That Old Time Religion
TTITLE20=Big In Vegas
TTITLE21=Love Is Strange
TTITLE22=Cinderella
TTITLE23=I'll Be All Right Tomorrow
TTITLE24=Hurry Come Running Back To Me
TTITLE25=Ensenada
TTITLE26=The Night They Drove Old Dixie Down
TTITLE27=Take Care Of You For Me In Kansas City
TTITLE28=One More Time
TTITLE29=Goin' Home To The Bayou
TTITLE30=Country Pickin'
TTITLE31=Rompin ' And Stompin'
EXTD=
EXTT0=
EXTT1=
EXTT2=
EXTT3=
EXTT4=
EXTT5=
EXTT6=
EXTT7=
EXTT8=
EXTT9=
EXTT10=
EXTT11=
EXTT12=
EXTT13=
EXTT14=
EXTT15=
EXTT16=
EXTT17=
EXTT18=
EXTT19=
EXTT20=
EXTT21=
EXTT22=
EXTT23=
EXTT24=
EXTT25=
EXTT26=
EXTT27=
EXTT28=
EXTT29=
EXTT30=
EXTT31=
PLAYORDER=
